<?xml version="1.0" encoding="UTF-8"?>
<!DOCTYPE svg PUBLIC "-//W3C//DTD SVG 1.1//EN" "http://www.w3.org/Graphics/SVG/1.1/DTD/svg11.dtd">
<!-- Creator: CorelDRAW 2018 (64 Bit) -->
<svg xmlns="http://www.w3.org/2000/svg" xml:space="preserve" width="51.35mm" height="9.1306mm" version="1.1" style="shape-rendering:geometricPrecision; text-rendering:geometricPrecision; image-rendering:optimizeQuality; fill-rule:evenodd; clip-rule:evenodd"
viewBox="0 0 1202.35 213.79"
 xmlns:xlink="http://www.w3.org/1999/xlink">
 <defs>
  <style type="text/css">
   <![CDATA[
    .fil0 {fill:#162D49}
    .fil1 {fill:black;fill-rule:nonzero}
    .fil5 {fill:#38B549;fill-rule:nonzero}
    .fil2 {fill:#75CAC6;fill-rule:nonzero}
    .fil4 {fill:#8CC63F;fill-rule:nonzero}
    .fil3 {fill:#FFC64B;fill-rule:nonzero}
   ]]>
  </style>
 </defs>
 <g id="Camada_x0020_1">
  <metadata id="CorelCorpID_0Corel-Layer"/>
  <g id="_1284186544">
   <path id="__xf16b_" class="fil0" d="M67.76 0l41.89 34.91 -0.11 0.18c-0.34,0.55 -0.67,1.09 -0.99,1.63l-0 0.01 -0.11 0.18 -0.11 0.18 -0.11 0.18 -0.11 0.18 -0.1 0.18c-0.28,0.48 -0.55,0.96 -0.81,1.44l-0 0 -0.1 0.18 -0.1 0.18 -0.19 0.36 -0.1 0.18 -0.03 0.05c-0.25,0.46 -0.49,0.93 -0.72,1.39l-0.09 0.18 -0.09 0.18 -0.09 0.18 -0.09 0.18 -0.09 0.18 -0.01 0.02c-0.26,0.53 -0.51,1.07 -0.75,1.59l-0.08 0.18 -0.08 0.18 -0.08 0.18 -0.08 0.18 -0.08 0.18 -0.01 0.03c-0.23,0.52 -0.45,1.04 -0.67,1.56l-0 0 -11.39 7.01c-4.03,-3.57 -8.25,-6.5 -12.34,-8.9l-0.12 -0.07 -0.07 -0.04 -0.83 -0.48 -0.05 -0.03 -0.78 -0.44 -0.16 -0.09 -0.17 -0.09 -0.73 -0.39 -0.03 -0.02 -0.54 -0.29 -0.18 -0.09 -0.41 -0.22 -0.51 -0.26 -0.21 -0.11 -0.3 -0.15 -0.61 -0.3 -0.19 -0.09 -0.72 -0.34 -0.07 -0.04 -0.78 -0.37 -0.04 -0.02 -0.74 -0.33 -0.15 -0.07 -0.62 -0.27 -0.25 -0.11 -0.51 -0.22 -0.35 -0.15 -0.39 -0.16 -0.45 -0.19 -0.29 -0.11 -0.55 -0.22 -0.18 -0.07 -0.64 -0.25 -0.07 -0.03 -0.7 -0.27 -0.03 -0.01 -0.66 -0.25 -0.12 -0.04 -0.55 -0.2 -0.21 -0.08 -0.45 -0.16 -0.3 -0.11 -0.35 -0.12 -0.38 -0.13 -0.25 -0.08 -0.61 -0.2 -0.53 -0.17 -0.07 -0.02 -0.58 -0.18 -0.02 -0 -0.55 -0.17 -0.09 -0.03 -0.45 -0.14 -0.17 -0.05 -0.36 -0.11 -0.23 -0.07 -0.28 -0.08 -0.3 -0.08 -0.2 -0.05 -0.35 -0.09 -0.12 -0.03 -0.4 -0.1 -0.06 -0.01 -0.43 -0.11 -0.01 0 -0.4 -0.1 -0.07 -0.02 -0.32 -0.07 -0.11 -0.03 -0.25 -0.06 -0.15 -0.04 -0.18 -0.04 -0.32 -0.07 -0.21 -0.05 -0.08 -0.02 -0.23 -0.05 -0.03 -0 -0.24 -0.05 -0 -0 -0.21 -0.04 -0.03 -0 -0.16 -0.03 -0.05 -0.01 -0.11 -0.02 -0.06 -0.01 -0.07 -0.01 -0.07 -0.01 -0.04 -0 -0.06 -0.01 -0.02 -0 -0.04 -0.01 -0 0 -0.02 -0 -0.09 0.76 -0.05 0.48 -0.03 0.29 -0.08 0.75 -0.02 0.19 -0.05 0.56 -0.06 0.65 -0.01 0.1 -0.06 0.74 -0.03 0.37 -0.03 0.37 -0.05 0.73 -0.04 0.6 -0.01 0.13 -0.04 0.54 -0.01 0.18 -0.04 0.72 -0.01 0.26 -0.02 0.45 -0.03 0.7 0 0.01 -0.03 0.71 -0.01 0.43 -0.01 0.27 -0.02 0.7 -0 0.17 -0.01 0.53 -0.01 0.6 0 0.09 -0 0.69 0 0.05 0 0.55 0 0.07 0 0.68 0 0.07 0 0.21 0.01 0.7 0 0.18 0 0.18 0.02 0.67 0 0.24 0.02 0.43 0.02 0.65 0 0.01 0.03 0.66 0.04 0.65 0.04 0.65 0.03 0.44 0.01 0.21 0.04 0.55 0.01 0.09 0.05 0.64 0.02 0.3 0.03 0.33 0.06 0.63 0.04 0.4 0.02 0.22 0.04 0.45 0.02 0.17 0.07 0.62 0.07 0.61 0.07 0.59 0 0.02 0.08 0.6 0.05 0.36 0.04 0.24 0.09 0.6 0.07 0.44 0.02 0.15 0.08 0.5 0.01 0.09 0.1 0.59 0.04 0.27 0.06 0.31 0.11 0.58 0.01 0.05 0.1 0.52 0.11 0.57 0.12 0.56 0.04 0.19 0.08 0.37 0.12 0.54 0 0.02 0.13 0.55 0.07 0.32 0.05 0.23 0.13 0.55 0.1 0.39 0.04 0.15 0.12 0.45 0.02 0.09 0.14 0.54 0.07 0.25 0.08 0.29 0.15 0.53 0.01 0.04 0.14 0.48 0.11 0.37 0.05 0.15 0.16 0.52 0.05 0.17 0.01 0.04 0.09 0.31 -10.14 6.24 -46.74 -37.33 67.76 -44.12z"/>
   <polygon id="__xf16b__0" class="fil0" points="183.09,158.2 183.09,173.14 115.33,213.65 115.33,213.79 115.19,213.65 115.05,213.79 115.05,213.65 47.43,173.14 47.43,158.2 67.76,171.47 115.05,132.2 115.05,131.92 115.19,132.06 115.33,131.92 115.33,132.2 162.76,171.47 "/>
   <g>
    <path class="fil1" d="M418.44 170.62l0 -9.75 -52.18 0 0 -92.32 -10.9 0 0 102.07 63.08 0zm67.52 0l0 -47.89c0,-15.19 -9.17,-23.51 -28.24,-23.51 -11.61,0 -18.78,2.44 -24.95,10.61l7.02 6.45c4.3,-5.88 8.89,-8.17 17.78,-8.17 13.05,0 18.06,5.3 18.06,15.48l0 6.74 -21.08 0c-15.77,0 -24.51,7.89 -24.51,20.36 0,5.59 1.72,10.9 5.3,14.34 4.87,4.73 10.18,6.45 19.93,6.45 9.46,0 14.77,-2.01 20.36,-7.6l0 6.74 10.32 0zm-10.32 -24.95c0,5.88 -1.15,9.89 -3.58,12.19 -4.59,4.16 -9.75,4.73 -15.63,4.73 -11.33,0 -16.34,-3.87 -16.34,-12.04 0,-8.31 5.3,-12.47 15.91,-12.47l19.64 0 0 7.6zm91.47 -10.32c0,-11.33 -1.58,-22.94 -8.6,-29.96 -3.73,-3.73 -9.89,-6.16 -17.2,-6.16 -7.74,0 -14.05,1.72 -19.93,9.03l0 -39.71 -10.32 0 0 102.07 10.32 0 0 -8.46c5.88,7.46 12.04,9.32 19.93,9.32 7.31,0 13.48,-2.44 17.2,-6.17 7.03,-7.17 8.6,-18.64 8.6,-29.96l0 0zm-10.32 0c0,13.76 -2.29,26.95 -17.63,26.95 -15.48,0 -17.78,-13.19 -17.78,-26.95 0,-13.76 2.29,-26.95 17.78,-26.95 15.34,0 17.63,13.19 17.63,26.95zm104.09 -6.6l0 -14.91 -38.57 0 0 16.77 18.78 0 0 3.73c0,5.31 -1.29,9.89 -4.59,13.62 -3.15,3.58 -8.03,5.73 -14.19,5.73 -5.45,0 -9.75,-2.01 -12.76,-5.31 -3.73,-4.3 -4.87,-9.32 -4.87,-28.81 0,-19.5 1.14,-24.37 4.87,-28.67 3.01,-3.3 7.31,-5.45 12.76,-5.45 10.18,0 16.06,5.16 18.35,14.91l20.07 0c-2.72,-17.2 -14.62,-32.69 -38.42,-32.69 -11.61,0 -20.21,3.87 -27.24,10.75 -10.18,10.18 -10.32,21.65 -10.32,41.14 0,19.5 0.14,30.97 10.32,41.14 7.02,6.88 15.63,10.75 27.24,10.75 10.9,0 20.36,-2.72 28.82,-11.61 7.46,-7.74 9.75,-16.34 9.75,-31.11zm87.59 41.86l0 -17.78 -47.31 0 0 -24.8 40.29 0 0 -17.78 -40.29 0 0 -23.94 47.31 0 0 -17.78 -67.24 0 0 102.07 67.24 0zm86.74 -84.3l0 -17.78 -67.24 0 0 102.07 19.93 0 0 -41.43 40.29 0 0 -17.78 -40.29 0 0 -25.09 47.31 0zm87.59 84.3l-37.27 -102.07 -15.63 0 -37.13 102.07 20.79 0 6.16 -18.06 36.27 0 6.02 18.06 20.79 0zm-32.11 -34.84l-25.37 0 12.9 -37.13 12.47 37.13z"/>
    <path class="fil2" d="M1045.08 141.23c0,-13.62 -7.88,-20.07 -14.05,-22.94 5.16,-2.44 12.62,-9.75 12.62,-21.08 0,-17.49 -11.61,-28.67 -31.54,-28.67l-41 0 0 102.07 42.72 0c18.2,0 31.25,-10.32 31.25,-29.39zm-19.93 -1c0,6.88 -4.3,12.62 -13.33,12.62l-20.79 0 0 -25.09 20.79 0c9.03,0 13.33,5.59 13.33,12.48zm-1.44 -42.15c0,7.02 -4.73,11.76 -13.19,11.76l-19.5 0 0 -23.51 19.5 0c8.46,0 13.19,4.73 13.19,11.76zm100.36 35.12c0,-13.48 -1.72,-21.79 -8.46,-28.96 -4.73,-5.02 -12.19,-9.18 -23.23,-9.18 -11.04,0 -18.35,4.3 -23.08,9.18 -6.74,7.17 -8.46,15.48 -8.46,28.96 0,13.48 1.72,21.93 8.46,29.1 4.73,4.87 12.04,9.17 23.08,9.17 11.04,0 18.49,-4.3 23.23,-9.17 6.88,-7.02 8.46,-15.63 8.46,-29.1zm-18.64 0c0,7.74 -0.43,14.48 -4.3,18.2 -2.15,2.15 -5.02,3.3 -8.75,3.3 -3.58,0 -6.45,-1.14 -8.6,-3.3 -3.87,-3.73 -4.3,-10.46 -4.3,-18.2 0,-7.6 0.43,-14.34 4.3,-18.06 2.15,-2.15 5.02,-3.3 8.6,-3.3 3.73,0 6.6,1.14 8.75,3.3 3.87,3.73 4.3,10.46 4.3,18.06zm96.91 37.42l-25.81 -38.14 24.8 -36.56 -22.36 0 -12.76 21.36 -12.62 -21.36 -22.37 0 24.8 36.56 -25.81 38.14 22.36 0 13.62 -22.36 13.76 22.36 22.37 0z"/>
   </g>
   <path id="__xf16b__1" class="fil0" d="M162.48 0l67.62 44.12 -46.74 37.33 -8.92 -5.49c3.49,-10.66 4.09,-20.53 4.03,-26.62l-0 -0.23 -0 -0.23 -0.02 -0.88 0 -0.03 -0.03 -0.78 -0.01 -0.25 -0 -0.13 -0.04 -0.71 -0 -0.08 -0.01 -0.25 -0.01 -0.16 -0.01 -0.15 -0.01 -0.24 -0 -0.05 -0.02 -0.28 -0 -0.03 -0.02 -0.23 -0.02 -0.24 -0.01 -0.15 -0 -0.07 -0.02 -0.19 0 -0.01 -0.02 -0.18 -0 -0.04 -0.01 -0.12 -0.01 -0.08 -0.01 -0.06 -0.01 -0.1 -0 -0.02 -0.01 -0.1 0 -0.01 -0.01 -0.07 -0 -0.03 -0 -0.03 -0 -0.03 0 -0.01 -0 -0.01 -0.63 0.11 -0.63 0.12 -0.63 0.12 -0.62 0.12 -0.62 0.13 -0.61 0.13 0 0 -0.61 0.13 0 0 -0.6 0.13 -0 0 -0.6 0.13 -0 0 -0.6 0.14 0 0 -0.59 0.14 -0 0 -0.59 0.14 0 0 -0.59 0.14 -0 0 -0.58 0.14 0 0 -0.58 0.15 -0 0 -0.57 0.15 -0 0 -0.57 0.15 -0 0 -0.57 0.15 0 0 -0.56 0.15 -0 0c-8.43,2.37 -15.56,5.48 -21.61,9.09 -0.06,-0.62 -0.13,-1.23 -0.21,-1.84l-0 -0.05 -0.01 -0.06c-0.08,-0.59 -0.16,-1.18 -0.26,-1.76l-0.05 -0.35c-0.09,-0.55 -0.18,-1.09 -0.28,-1.63l-0.04 -0.25c-0.11,-0.57 -0.22,-1.13 -0.34,-1.69l-0.02 -0.12 -0 -0.02 -0.02 -0.1c-0.11,-0.54 -0.24,-1.08 -0.36,-1.61l-0.03 -0.14 -0.03 -0.12c-0.13,-0.55 -0.26,-1.08 -0.41,-1.62l-0.03 -0.1 -0.07 -0.25 -0.37 -1.34 -0.13 -0.45c-0.14,-0.46 -0.27,-0.91 -0.41,-1.36l-0.11 -0.33c-0.13,-0.42 -0.27,-0.84 -0.41,-1.25l-0.18 -0.55 -0.37 -1.04 -0.13 -0.36 -0.05 -0.14 -0.48 -1.29 -0.15 -0.39 -0.42 -1.06 -0.24 -0.59 -0.42 -1.01 -0.22 -0.51 -0.36 -0.81 -0.18 -0.4 -0.02 -0.04 -0.2 -0.44 -0.2 -0.43 -0 -0.01 -0.4 -0.84 -0.2 -0.42 -0.2 -0.41 -0.19 -0.38 -0.01 -0.02 -0.2 -0.4 -0.2 -0.4 -0.4 -0.78 -0.2 -0.38 -0.02 -0.04 -0.37 -0.7 -0 -0.01 -0.2 -0.37 -0.4 -0.72 -0.2 -0.35 27.78 -23.08z"/>
   <path class="fil3" d="M114.67 123.39l0.04 -0.3 0 -0c0.19,-1.48 0.35,-2.93 0.48,-4.36l0.03 0.04 0.03 0.04 0.03 0.04 0.03 0.04 0.03 0.04 0.03 0.04 0.03 0.04 0.03 0.03 0.02 0.03 0 0 0.03 0.03 0.03 0.03 0.03 0.03 0.03 0.03 0.03 0.03 0.02 0.03 0.03 0.03 0.02 0.03 0.02 0.03 0.02 0.03 0.02 0.03 0 0 0.02 0.03 0.02 0.03 0.02 0.02 0.02 0.03 0.02 0.03 0.02 0.02 0.02 0.02 0.02 0.02 0.02 0.02 0.02 0.02 0.02 0.02 0.02 0.02 0.02 0.02 0.02 0.02 0.01 0.02 0.02 0.02 0.01 0.02 0.01 0.02 0.01 0.02 0.01 0.01 0.01 0.02 0.01 0.01 0.01 0.01 0.01 0.01 0.01 0.01 0.01 0.01 0.01 0.01 0.01 0.01 0.01 0.01 0.01 0.01 0.01 0.01 0.01 0.01 0 0.01 0.01 0.01 0 0.01 0 0 0 0 0 0 0 0 0 0 0 0 0 0 0 0c0.88,-0.79 1.73,-1.58 2.56,-2.36l0.22 -0.2c0.77,-0.73 1.51,-1.47 2.24,-2.2l0.24 -0.23c0.74,-0.75 1.46,-1.5 2.16,-2.25l0.13 -0.14c0.73,-0.79 1.44,-1.58 2.14,-2.36l0.08 -0.1c0.65,-0.75 1.28,-1.5 1.9,-2.24l0.24 -0.29c0.61,-0.74 1.19,-1.48 1.76,-2.23l0.08 -0.1c0.59,-0.78 1.16,-1.55 1.72,-2.32l0.05 -0.07 0.03 -0.04c0.55,-0.77 1.08,-1.54 1.59,-2.31l0.13 -0.2c0.48,-0.73 0.94,-1.45 1.39,-2.18l0.15 -0.24c0.45,-0.74 0.89,-1.48 1.31,-2.22l0.07 -0.13c0.44,-0.78 0.87,-1.57 1.27,-2.35l0.02 -0.05c0.39,-0.76 0.77,-1.51 1.12,-2.26l0.12 -0.26c0.33,-0.69 0.64,-1.38 0.94,-2.07l0.13 -0.31c0.3,-0.7 0.59,-1.41 0.87,-2.11l0.07 -0.19c0.28,-0.73 0.55,-1.45 0.8,-2.18l0.11 -0.32c0.22,-0.66 0.44,-1.31 0.64,-1.96l0.12 -0.39c0.2,-0.66 0.39,-1.33 0.57,-1.99l0.06 -0.21c0.2,-0.73 0.38,-1.46 0.55,-2.18l0.01 -0.05 0.02 -0.09c0.16,-0.71 0.31,-1.41 0.45,-2.12l0.04 -0.2c0.13,-0.66 0.24,-1.32 0.35,-1.98l0.05 -0.33c0.1,-0.65 0.19,-1.29 0.27,-1.93l0.03 -0.24c0.08,-0.7 0.16,-1.39 0.22,-2.08l0.02 -0.2c0.05,-0.63 0.1,-1.25 0.13,-1.86l0.02 -0.4c0.03,-0.57 0.05,-1.14 0.07,-1.71l0.01 -0.43c0.01,-0.66 0.02,-1.31 0.01,-1.96l0 -0.01 0 -0.03c-0.01,-0.65 -0.02,-1.29 -0.05,-1.93l-0.02 -0.39c-0.02,-0.54 -0.05,-1.07 -0.09,-1.61l-0.03 -0.42c-0.04,-0.55 -0.09,-1.11 -0.14,-1.66l-0.03 -0.34 0 -0c8.6,-5.13 19.41,-9.26 32.99,-11.68 0,0 3.4,25.59 -10.86,48.3l-52.12 32.18 -0.15 0.03 -0.12 -0.07 -0.21 -0.13z"/>
   <path class="fil4" d="M65.42 92.98c-8.94,-13.18 -14.6,-31.9 -11.5,-58.43 0,0 27.21,4.42 45.5,26.21l-0.01 0.07c-0.4,2.25 -0.67,4.46 -0.83,6.63l-0.01 0.16c-0.62,8.8 0.6,16.9 2.66,23.96l0.03 0.09c1.14,3.89 2.52,7.47 3.99,10.67l0.4 0.87c0.54,1.14 1.09,2.24 1.63,3.28l0.41 0.77 0.3 0.55 0.21 0.38c0.38,0.67 0.75,1.33 1.12,1.95l0.4 0.67 0.35 0.58 0.07 0.12 0.69 1.1 0.07 0.11 0.33 0.51 0.02 0.04 0.37 0.56 0.36 0.54 0.28 0.41 0.07 0.1 0.34 0.49c0.31,0.44 0.61,0.86 0.89,1.25l0.06 0.08 0.22 0.3 0.07 0.09 0.28 0.37 0.75 0.96 0.15 0.2 0.06 0.07 0 0c-0.14,1.53 -0.3,3.08 -0.51,4.67l-49.25 -30.41z"/>
   <polygon id="__xf16b__2" class="fil0" points="183.37,81.45 230.11,118.93 162.48,163.04 115.05,123.63 "/>
   <polygon id="__xf16b__3" class="fil0" points="46.74,81.45 115.05,123.63 67.76,163.04 -0,118.93 "/>
   <path class="fil5" d="M116.23 119.98c0,0 -47.14,-52.4 11.84,-106.85 0,0 46.21,54.79 -11.84,106.85z"/>
  </g>
 </g>
</svg>
