<?xml version="1.0" encoding="UTF-8"?>
<!DOCTYPE svg PUBLIC "-//W3C//DTD SVG 1.1//EN" "http://www.w3.org/Graphics/SVG/1.1/DTD/svg11.dtd">
<!-- Creator: CorelDRAW 2018 (64 Bit) -->
<svg xmlns="http://www.w3.org/2000/svg" xml:space="preserve" width="80.3436mm" height="14.2858mm" version="1.1" style="shape-rendering:geometricPrecision; text-rendering:geometricPrecision; image-rendering:optimizeQuality; fill-rule:evenodd; clip-rule:evenodd"
viewBox="0 0 3255.07 578.78"
 xmlns:xlink="http://www.w3.org/1999/xlink">
 <defs>
  <style type="text/css">
   <![CDATA[
    .fil0 {fill:#162D49}
    .fil1 {fill:black;fill-rule:nonzero}
    .fil5 {fill:#38B549;fill-rule:nonzero}
    .fil2 {fill:#75CAC6;fill-rule:nonzero}
    .fil4 {fill:#8CC63F;fill-rule:nonzero}
    .fil3 {fill:#FFC64B;fill-rule:nonzero}
   ]]>
  </style>
 </defs>
 <g id="Camada_x0020_1">
  <metadata id="CorelCorpID_0Corel-Layer"/>
  <path id="__xf16b_" class="fil0" d="M183.45 0l113.4 94.5 -0.31 0.49c-0.92,1.48 -1.82,2.95 -2.69,4.42l-0.01 0.02 -0.29 0.49 -0.29 0.49 -0.29 0.49 -0.28 0.49 -0.28 0.49c-0.75,1.31 -1.49,2.61 -2.2,3.91l-0 0.01 -0.27 0.49 -0.26 0.49 -0.53 0.98 -0.26 0.49 -0.07 0.14c-0.67,1.26 -1.32,2.51 -1.95,3.76l-0.24 0.49 -0.24 0.49 -0.24 0.49 -0.24 0.48 -0.24 0.49 -0.02 0.04c-0.7,1.45 -1.38,2.88 -2.05,4.31l-0.22 0.48 -0.22 0.48 -0.22 0.48 -0.22 0.48 -0.21 0.48 -0.04 0.09c-0.63,1.42 -1.23,2.82 -1.82,4.23l-0 0.01 -30.83 18.97c-10.92,-9.67 -22.33,-17.6 -33.41,-24.08l-0.33 -0.19 -0.19 -0.11 -2.24 -1.28 -0.13 -0.07 -2.11 -1.18 -0.44 -0.24 -0.47 -0.26 -1.97 -1.06 -0.09 -0.05 -1.46 -0.77 -0.49 -0.26 -1.12 -0.58 -1.37 -0.7 -0.57 -0.29 -0.82 -0.41 -1.65 -0.81 -0.51 -0.25 -1.94 -0.93 -0.2 -0.09 -2.12 -0.99 -0.1 -0.04 -2 -0.91 -0.39 -0.17 -1.68 -0.74 -0.68 -0.3 -1.37 -0.59 -0.95 -0.41 -1.07 -0.45 -1.22 -0.51 -0.77 -0.31 -1.48 -0.6 -0.48 -0.19 -1.73 -0.68 -0.2 -0.08 -1.9 -0.72 -0.07 -0.03 -1.79 -0.66 -0.33 -0.12 -1.5 -0.54 -0.58 -0.21 -1.21 -0.43 -0.81 -0.28 -0.94 -0.32 -1.03 -0.35 -0.67 -0.22 -1.67 -0.55 -1.44 -0.46 -0.18 -0.06 -1.58 -0.49 -0.04 -0.02 -1.49 -0.45 -0.26 -0.08 -1.23 -0.36 -0.45 -0.13 -0.98 -0.28 -0.63 -0.18 -0.75 -0.21 -0.8 -0.22 -0.53 -0.15 -0.94 -0.26 -0.33 -0.09 -1.07 -0.28 -0.15 -0.04 -1.16 -0.3 -0.02 -0 -1.08 -0.27 -0.17 -0.04 -0.87 -0.21 -0.3 -0.07 -0.68 -0.16 -0.41 -0.1 -0.5 -0.11 -0.85 -0.19 -0.58 -0.13 -0.21 -0.04 -0.63 -0.13 -0.09 -0.02 -0.65 -0.13 -0 -0 -0.57 -0.11 -0.08 -0.02 -0.43 -0.08 -0.14 -0.03 -0.3 -0.06 -0.17 -0.03 -0.19 -0.04 -0.17 -0.03 -0.11 -0.02 -0.15 -0.03 -0.05 -0.01 -0.11 -0.02 -0.01 0 -0.04 -0.01 -0.23 2.07 -0.14 1.28 -0.08 0.77 -0.21 2.04 -0.05 0.51 -0.15 1.53 -0.16 1.76 -0.02 0.26 -0.17 2.01 -0.08 0.99 -0.08 1 -0.15 1.99 -0.11 1.61 -0.02 0.36 -0.09 1.46 -0.03 0.5 -0.11 1.95 -0.04 0.71 -0.06 1.23 -0.09 1.91 0 0.02 -0.07 1.92 -0.04 1.17 -0.02 0.73 -0.05 1.9 -0.01 0.45 -0.02 1.43 -0.02 1.62 0 0.26 -0.01 1.86 0 0.15 0 1.5 0 0.2 0.01 1.84 0 0.2 0.01 0.57 0.03 1.9 0.01 0.5 0.01 0.48 0.04 1.81 0.02 0.64 0.04 1.15 0.06 1.75 0 0.03 0.08 1.77 0.09 1.76 0.1 1.75 0.07 1.18 0.04 0.56 0.11 1.48 0.02 0.25 0.13 1.72 0.06 0.81 0.08 0.9 0.16 1.7 0.11 1.09 0.06 0.6 0.13 1.22 0.05 0.46 0.19 1.67 0.19 1.65 0.2 1.6 0.01 0.05 0.21 1.63 0.13 0.97 0.09 0.66 0.24 1.62 0.18 1.18 0.06 0.42 0.21 1.35 0.04 0.25 0.27 1.58 0.13 0.74 0.15 0.84 0.28 1.56 0.02 0.14 0.27 1.41 0.3 1.54 0.31 1.53 0.11 0.52 0.21 1 0.32 1.45 0.02 0.06 0.34 1.5 0.2 0.88 0.15 0.62 0.36 1.48 0.26 1.06 0.1 0.41 0.31 1.22 0.06 0.24 0.38 1.45 0.18 0.66 0.21 0.78 0.4 1.43 0.03 0.11 0.38 1.31 0.29 1 0.13 0.42 0.43 1.4 0.14 0.46 0.04 0.11 0.26 0.83 -27.44 16.89 -126.54 -101.08 183.45 -119.43z"/>
  <polygon id="__xf16b__0" class="fil0" points="495.67,428.28 495.67,468.72 312.23,578.41 312.23,578.78 311.85,578.41 311.48,578.78 311.48,578.41 128.41,468.72 128.41,428.28 183.45,464.22 311.48,357.9 311.48,357.15 311.85,357.53 312.23,357.15 312.23,357.9 440.63,464.22 "/>
  <g id="_241904272">
   <path class="fil1" d="M1132.82 461.92l0 -26.39 -141.27 0 0 -249.95 -29.5 0 0 276.34 170.77 0zm182.8 0l0 -129.63c0,-41.14 -24.84,-63.65 -76.46,-63.65 -31.44,0 -50.85,6.6 -67.53,28.72l19.02 17.47c11.64,-15.91 24.06,-22.12 48.13,-22.12 35.32,0 48.9,14.36 48.9,41.92l0 18.24 -57.05 0c-42.69,0 -66.37,21.35 -66.37,55.11 0,15.14 4.66,29.5 14.36,38.81 13.2,12.81 27.56,17.47 53.95,17.47 25.62,0 39.98,-5.43 55.11,-20.57l0 18.24 27.95 0zm-27.95 -67.53c0,15.91 -3.1,26.78 -9.7,32.99 -12.42,11.25 -26.4,12.81 -42.31,12.81 -30.67,0 -44.25,-10.48 -44.25,-32.6 0,-22.51 14.36,-33.76 43.08,-33.76l53.17 0 0 20.57zm247.62 -27.94c0,-30.66 -4.27,-62.1 -23.29,-81.12 -10.09,-10.09 -26.78,-16.69 -46.58,-16.69 -20.96,0 -38.03,4.66 -53.95,24.45l0 -107.51 -27.94 0 0 276.34 27.94 0 0 -22.9c15.91,20.18 32.6,25.23 53.95,25.23 19.8,0 36.48,-6.6 46.58,-16.69 19.02,-19.4 23.29,-50.45 23.29,-81.11l0 0zm-27.95 0c0,37.26 -6.21,72.97 -47.74,72.97 -41.92,0 -48.13,-35.71 -48.13,-72.97 0,-37.26 6.21,-72.97 48.13,-72.97 41.53,0 47.74,35.71 47.74,72.97zm281.78 -17.85l0 -40.36 -104.41 0 0 45.41 50.85 0 0 10.09c0,14.36 -3.49,26.78 -12.42,36.87 -8.54,9.7 -21.74,15.53 -38.42,15.53 -14.75,0 -26.4,-5.43 -34.55,-14.36 -10.09,-11.64 -13.2,-25.23 -13.2,-78.01 0,-52.79 3.1,-65.98 13.2,-77.63 8.15,-8.93 19.8,-14.75 34.55,-14.75 27.56,0 43.47,13.97 49.68,40.36l54.34 0c-7.37,-46.58 -39.59,-88.49 -104.02,-88.49 -31.44,0 -54.73,10.48 -73.74,29.11 -27.56,27.56 -27.95,58.6 -27.95,111.39 0,52.78 0.39,83.83 27.95,111.39 19.02,18.63 42.31,29.11 73.74,29.11 29.5,0 55.11,-7.37 78.01,-31.44 20.18,-20.96 26.39,-44.25 26.39,-84.22zm237.14 113.33l0 -48.13 -128.08 0 0 -67.14 109.06 0 0 -48.13 -109.06 0 0 -64.81 128.08 0 0 -48.13 -182.03 0 0 276.34 182.03 0zm234.81 -228.21l0 -48.13 -182.03 0 0 276.34 53.95 0 0 -112.17 109.06 0 0 -48.13 -109.06 0 0 -67.92 128.08 0zm237.14 228.21l-100.91 -276.34 -42.31 0 -100.52 276.34 56.28 0 16.69 -48.9 98.19 0 16.3 48.9 56.28 0zm-86.94 -94.31l-68.7 0 34.93 -100.52 33.76 100.52z"/>
   <path class="fil2" d="M2829.3 382.35c0,-36.87 -21.35,-54.33 -38.03,-62.1 13.97,-6.6 34.15,-26.4 34.15,-57.06 0,-47.35 -31.44,-77.62 -85.39,-77.62l-111 0 0 276.34 115.66 0c49.29,0 84.61,-27.94 84.61,-79.57zm-53.95 -2.71c0,18.63 -11.64,34.15 -36.09,34.15l-56.28 0 0 -67.92 56.28 0c24.45,0 36.09,15.14 36.09,33.77zm-3.88 -114.11c0,19.02 -12.81,31.83 -35.71,31.83l-52.79 0 0 -63.65 52.79 0c22.9,0 35.71,12.81 35.71,31.82zm271.69 95.09c0,-36.48 -4.66,-59 -22.9,-78.4 -12.81,-13.58 -32.99,-24.84 -62.88,-24.84 -29.88,0 -49.68,11.64 -62.49,24.84 -18.24,19.4 -22.9,41.92 -22.9,78.4 0,36.48 4.66,59.38 22.9,78.79 12.81,13.2 32.6,24.84 62.49,24.84 29.89,0 50.07,-11.64 62.88,-24.84 18.63,-19.02 22.9,-42.31 22.9,-78.79zm-50.46 0c0,20.96 -1.17,39.2 -11.64,49.29 -5.82,5.82 -13.58,8.93 -23.68,8.93 -9.7,0 -17.47,-3.1 -23.29,-8.93 -10.48,-10.09 -11.64,-28.33 -11.64,-49.29 0,-20.57 1.17,-38.81 11.64,-48.9 5.82,-5.82 13.58,-8.93 23.29,-8.93 10.09,0 17.85,3.1 23.68,8.93 10.48,10.09 11.64,28.33 11.64,48.9zm262.37 101.3l-69.86 -103.24 67.14 -98.97 -60.54 0 -34.54 57.83 -34.16 -57.83 -60.55 0 67.14 98.97 -69.86 103.24 60.54 0 36.88 -60.54 37.26 60.54 60.55 0z"/>
  </g>
  <path id="__xf16b__1" class="fil0" d="M439.89 0l183.07 119.43 -126.54 101.08 -24.16 -14.86c9.46,-28.85 11.08,-55.59 10.92,-72.07l-0 -0.62 -0.01 -0.63 -0.05 -2.37 0 -0.08 -0.07 -2.12 -0.02 -0.68 -0.02 -0.36 -0.1 -1.93 -0.01 -0.21 -0.04 -0.68 -0.02 -0.45 -0.03 -0.4 -0.04 -0.65 -0.01 -0.15 -0.05 -0.75 -0 -0.07 -0.05 -0.63 -0.05 -0.64 -0.03 -0.41 -0.02 -0.18 -0.05 -0.53 0 -0.02 -0.05 -0.49 -0.01 -0.12 -0.03 -0.32 -0.02 -0.21 -0.02 -0.16 -0.03 -0.28 -0 -0.05 -0.03 -0.27 0 -0.03 -0.02 -0.18 -0.01 -0.07 -0.01 -0.08 -0.01 -0.07 -0 -0.02 -0 -0.03 -1.72 0.31 -1.71 0.32 -1.7 0.33 -1.69 0.33 -1.67 0.34 -1.66 0.34 -0 0 -1.65 0.35 -0 0 -1.64 0.35 -0 0 -1.63 0.36 -0 0 -1.62 0.36 -0 0 -1.6 0.37 -0 0 -1.6 0.38 -0 0 -1.58 0.38 -0 0 -1.58 0.39 -0 0 -1.56 0.4 -0 0 -1.55 0.41 -0 0 -1.54 0.41 -0 0 -1.53 0.41 -0 0 -1.52 0.42 -0 0c-22.81,6.42 -42.14,14.84 -58.51,24.61 -0.17,-1.67 -0.36,-3.33 -0.58,-4.98l-0.02 -0.13 -0.02 -0.15c-0.21,-1.6 -0.44,-3.19 -0.68,-4.76l-0.15 -0.95c-0.24,-1.48 -0.49,-2.95 -0.76,-4.41l-0.12 -0.67c-0.29,-1.54 -0.59,-3.06 -0.91,-4.57l-0.06 -0.32 -0.02 -0.06 -0.06 -0.27c-0.31,-1.46 -0.64,-2.92 -0.98,-4.36l-0.09 -0.39 -0.08 -0.32c-0.36,-1.47 -0.72,-2.94 -1.1,-4.39l-0.07 -0.27 -0.18 -0.67 -1 -3.61 -0.35 -1.22c-0.36,-1.24 -0.73,-2.46 -1.11,-3.67l-0.28 -0.91c-0.36,-1.14 -0.73,-2.26 -1.11,-3.38l-0.5 -1.49 -0.98 -2.81 -0.35 -0.98 -0.14 -0.37 -1.3 -3.48 -0.41 -1.06 -1.13 -2.86 -0.65 -1.6 -1.15 -2.73 -0.6 -1.38 -0.97 -2.2 -0.48 -1.08 -0.06 -0.12 -0.54 -1.18 -0.54 -1.17 -0.02 -0.04 -1.07 -2.26 -0.55 -1.13 -0.55 -1.11 -0.51 -1.05 -0.03 -0.06 -0.55 -1.09 -0.55 -1.08 -1.09 -2.11 -0.54 -1.03 -0.06 -0.11 -1.02 -1.9 -0.01 -0.02 -0.54 -0.99 -1.07 -1.94 -0.53 -0.95 75.2 -62.49z"/>
  <path class="fil3" d="M310.44 334.05l0.1 -0.8 0 -0.01c0.51,-4 0.94,-7.94 1.29,-11.81l0.08 0.1 0.09 0.11 0.08 0.1 0.08 0.1 0.08 0.1 0.08 0.09 0.08 0.1 0.07 0.09 0.06 0.08 0.01 0.01 0.07 0.09 0.07 0.09 0.07 0.09 0.07 0.09 0.07 0.08 0.06 0.08 0.07 0.08 0.06 0.08 0.06 0.08 0.06 0.08 0.06 0.07 0 0 0.06 0.07 0.06 0.07 0.06 0.07 0.06 0.07 0.06 0.06 0.05 0.06 0.05 0.06 0.05 0.06 0.05 0.06 0.05 0.06 0.05 0.06 0.05 0.05 0.04 0.06 0.04 0.05 0.04 0.05 0.04 0.05 0.04 0.05 0.04 0.04 0.04 0.04 0.04 0.04 0.04 0.04 0.03 0.04 0.03 0.04 0.03 0.04 0.03 0.03 0.03 0.03 0.02 0.03 0.02 0.03 0.02 0.03 0.02 0.02 0.02 0.02 0.02 0.02 0.02 0.02 0.02 0.02 0.02 0.02 0.01 0.01 0.01 0.02 0.01 0.01 0.01 0.01 0.01 0.01 0 0 0 0 0 0c2.37,-2.13 4.69,-4.27 6.93,-6.4l0.58 -0.55c2.08,-1.98 4.1,-3.97 6.07,-5.95l0.64 -0.64c2,-2.03 3.95,-4.05 5.84,-6.08l0.34 -0.37c1.99,-2.14 3.91,-4.27 5.78,-6.4l0.23 -0.26c1.77,-2.03 3.48,-4.05 5.14,-6.07l0.65 -0.79c1.64,-2.01 3.23,-4.02 4.77,-6.03l0.21 -0.27c1.6,-2.1 3.15,-4.2 4.65,-6.29l0.15 -0.19 0.07 -0.11c1.49,-2.09 2.93,-4.18 4.31,-6.26l0.36 -0.55c1.3,-1.97 2.55,-3.94 3.76,-5.9l0.4 -0.65c1.22,-2.01 2.41,-4.01 3.54,-6.01l0.2 -0.35c1.2,-2.12 2.35,-4.24 3.45,-6.35l0.06 -0.13c1.06,-2.05 2.07,-4.08 3.04,-6.12l0.32 -0.69c0.88,-1.87 1.73,-3.73 2.54,-5.59l0.36 -0.84c0.82,-1.91 1.6,-3.81 2.34,-5.72l0.21 -0.52c0.76,-1.97 1.49,-3.94 2.17,-5.9l0.3 -0.86c0.61,-1.77 1.19,-3.54 1.73,-5.3l0.32 -1.05c0.55,-1.8 1.07,-3.6 1.55,-5.4l0.15 -0.56c0.53,-1.98 1.02,-3.95 1.47,-5.91l0.03 -0.13 0.05 -0.24c0.44,-1.92 0.85,-3.83 1.22,-5.74l0.1 -0.54c0.34,-1.79 0.66,-3.58 0.94,-5.36l0.14 -0.88c0.27,-1.75 0.51,-3.5 0.73,-5.23l0.09 -0.64c0.23,-1.88 0.43,-3.76 0.59,-5.63l0.04 -0.55c0.15,-1.69 0.27,-3.37 0.36,-5.04l0.06 -1.08c0.08,-1.56 0.13,-3.1 0.18,-4.63l0.03 -1.16c0.04,-1.78 0.05,-3.55 0.03,-5.3l0 -0.03 0 -0.08c-0.02,-1.76 -0.06,-3.5 -0.13,-5.24l-0.04 -1.05c-0.06,-1.46 -0.15,-2.91 -0.24,-4.36l-0.08 -1.14c-0.11,-1.5 -0.24,-3 -0.38,-4.48l-0.09 -0.92 0 -0.01c23.28,-13.9 52.55,-25.06 89.31,-31.63 0,0 9.2,69.27 -29.41,130.76l-141.09 87.11 -0.41 0.07 -0.33 -0.2 -0.57 -0.35z"/>
  <path class="fil4" d="M177.1 251.72c-24.2,-35.67 -39.52,-86.35 -31.14,-158.18 0,0 73.67,11.97 123.18,70.96l-0.03 0.19c-1.08,6.09 -1.81,12.07 -2.24,17.94l-0.03 0.43c-1.68,23.82 1.63,45.74 7.2,64.88l0.07 0.25c3.08,10.53 6.83,20.22 10.8,28.89l1.09 2.35c1.46,3.1 2.94,6.06 4.43,8.88l1.11 2.09 0.81 1.49 0.57 1.03c1.02,1.83 2.03,3.59 3.03,5.28l1.08 1.81 0.95 1.56 0.21 0.33 1.87 2.98 0.19 0.3 0.9 1.39 0.06 0.09 1 1.52 0.98 1.45 0.76 1.12 0.19 0.28 0.93 1.33c0.85,1.21 1.65,2.34 2.42,3.38l0.17 0.23 0.6 0.82 0.19 0.25 0.76 1 2.03 2.62 0.42 0.53 0.16 0.2 0 0c-0.38,4.15 -0.81,8.35 -1.37,12.65l-133.34 -82.33z"/>
  <polygon id="__xf16b__2" class="fil0" points="496.42,220.51 622.96,321.96 439.89,441.39 311.48,334.69 "/>
  <polygon id="__xf16b__3" class="fil0" points="126.54,220.51 311.48,334.69 183.45,441.39 -0,321.96 "/>
  <path class="fil5" d="M314.67 324.82c0,0 -127.63,-141.87 32.05,-289.27 0,0 125.1,148.34 -32.05,289.27z"/>
 </g>
</svg>
